<svg width="63" height="63" viewBox="0 0 63 63" fill="none" xmlns="http://www.w3.org/2000/svg">
<path d="M63 31.5C63 48.897 48.897 63 31.5 63C14.103 63 0 48.897 0 31.5C0 14.103 14.103 0 31.5 0C48.897 0 63 14.103 63 31.5Z" fill="#1A0023"/>
<path d="M39.6031 50.9989C39.2285 50.9989 38.8502 50.926 38.4892 50.7761C37.4043 50.3262 36.7037 49.2772 36.7037 48.104V41.4612C30.372 41.4612 24.4197 38.9957 19.9426 34.5186C15.4655 30.0416 13 24.089 13 17.7575V15.4453C13 14.647 13.647 14 14.4453 14C15.2436 14 15.8906 14.647 15.8906 15.4453V17.7575C15.8906 29.2339 25.2273 38.5706 36.7034 38.5706C38.2975 38.5706 39.5943 39.8671 39.5943 41.4612V48.104V48.1049C39.5966 48.106 39.5994 48.1071 39.6019 48.108C39.6028 48.1068 39.6039 48.106 39.605 48.1049L46.6842 41.0406C46.9584 40.7671 47.1094 40.4029 47.1094 40.0159C47.1094 39.6286 46.9584 39.2647 46.6842 38.9912L39.605 31.9267C39.6039 31.9255 39.6028 31.9247 39.6017 31.9236C39.5994 31.9244 39.5966 31.9255 39.5943 31.9267V31.9275V33.5117C39.5943 34.31 38.947 34.957 38.149 34.957C37.3507 34.957 36.7037 34.31 36.7037 33.5117V31.9275C36.7037 30.7543 37.4043 29.7054 38.4892 29.2554C39.5751 28.8049 40.8146 29.0502 41.6468 29.8807L48.726 36.9449C49.5475 37.7647 50 38.8554 50 40.0159C50 41.1764 49.5475 42.2669 48.726 43.0866L41.6468 50.1509C41.0916 50.7053 40.3545 50.9989 39.6031 50.9989V50.9989Z" fill="url(#paint0_linear_401_9)"/>
<defs>
<linearGradient id="paint0_linear_401_9" x1="13" y1="32.4994" x2="50" y2="32.4994" gradientUnits="userSpaceOnUse">
<stop stop-color="#708FFF"/>
<stop offset="1" stop-color="#D289FF"/>
</linearGradient>
</defs>
</svg>
