<?xml version="1.0"?>
<svg xmlns="http://www.w3.org/2000/svg" xmlns:xlink="http://www.w3.org/1999/xlink" xmlns:svgjs="http://svgjs.com/svgjs" version="1.1" width="512" height="512" x="0" y="0" viewBox="0 0 512 512" style="enable-background:new 0 0 512 512" xml:space="preserve" class=""><g><linearGradient xmlns="http://www.w3.org/2000/svg" id="SVGID_1_" gradientUnits="userSpaceOnUse" x1="256" x2="256" y1="48" y2="464"><stop stop-opacity="1" stop-color="#d289ff" offset="0"/><stop stop-opacity="1" stop-color="#adbfff" offset="0.9961389961389961"/></linearGradient><path xmlns="http://www.w3.org/2000/svg" d="m452 48h-392c-33.084 0-60 26.916-60 60v49.495l220.191 163.781c10.709 7.965 23.259 11.948 35.809 11.948s25.1-3.982 35.809-11.948l220.191-163.781v-49.495c0-33.084-26.916-60-60-60zm20 89.396-204.063 151.784c-7.14 5.311-16.734 5.311-23.873 0l-204.064-151.784v-29.396c0-11.028 8.972-20 20-20h392c11.028 0 20 8.972 20 20zm0 99.703 40-29.752v196.653c0 33.084-26.916 60-60 60h-392c-33.084 0-60-26.916-60-60v-196.653l40 29.752v166.901c0 11.028 8.972 20 20 20h392c11.028 0 20-8.972 20-20z" fill="url(#SVGID_1_)" data-original="url(#SVGID_1_)" style=""/></g></svg>
