<?xml version="1.0"?>
<svg xmlns="http://www.w3.org/2000/svg" xmlns:xlink="http://www.w3.org/1999/xlink" xmlns:svgjs="http://svgjs.com/svgjs" version="1.1" width="512" height="512" x="0" y="0" viewBox="0 0 512.003 512.003" style="enable-background:new 0 0 512 512" xml:space="preserve" class=""><g><linearGradient xmlns="http://www.w3.org/2000/svg" id="SVGID_1_" gradientUnits="userSpaceOnUse" x1=".031" x2="511.972" y1="256.002" y2="256.002"><stop stop-opacity="1" stop-color="#adbfff" offset="0"/><stop stop-opacity="1" stop-color="#d289ff" offset="1"/></linearGradient><path xmlns="http://www.w3.org/2000/svg" d="m504.219 4.19c-5.832-4.518-13.678-5.461-20.413-2.445l-472 211.105c-14.279 6.253-15.955 26.375-2.915 34.906l157.081 104.545v139.7c0 8.648 5.56 16.317 13.779 19.008 8.087 2.677 17.232-.165 22.351-7.184l62.808-85.677 135.981 90.502c5.651 3.763 12.816 4.39 19.014 1.71 6.219-2.687 10.654-8.338 11.786-15.018l80-472c1.233-7.272-1.639-14.634-7.472-19.152zm-298.247 426.701v-51.968l25.605 17.041zm191.43 27.389-179.994-119.795 174.651-173.286c7.841-7.779 7.891-20.442.11-28.284-7.779-7.84-20.442-7.891-28.284-.11l-180.469 179.057-122.167-81.308 404.756-181.029z" fill="url(#SVGID_1_)" data-original="url(#SVGID_1_)" style=""/></g></svg>
